<svg width="334" height="334" viewBox="0 0 334 334" fill="curentColor" xmlns="http://www.w3.org/2000/svg">
<path d="M206.635 138.826C206.635 111.074 206.635 83.3237 206.632 55.5708C206.632 50.6257 207.6 45.9312 210.216 41.6727C214.02 35.4751 219.661 32.166 226.789 31.2259C228.611 30.9847 230.442 30.9228 232.279 30.9259C240.505 30.9352 248.728 30.9073 256.954 30.9414C261.259 30.9568 265.453 31.631 269.297 33.6907C275.825 37.1822 279.462 42.7705 280.869 49.9299C281.231 51.7638 281.373 53.6224 281.373 55.4904C281.38 75.5798 281.373 95.6693 281.401 115.759C281.401 116.541 281.145 116.649 280.449 116.646C271.514 116.622 262.58 116.619 253.642 116.646C252.881 116.649 252.659 116.501 252.662 115.694C252.69 96.4332 252.677 77.1725 252.702 57.9119C252.702 57.0305 252.55 56.7367 251.586 56.746C246.439 56.8016 241.29 56.7862 236.141 56.7552C235.448 56.7521 235.263 56.9222 235.263 57.6304C235.281 84.7618 235.281 111.893 235.26 139.021C235.26 139.794 235.554 139.859 236.181 139.859C243.755 139.844 251.329 139.853 258.903 139.85C262.536 139.847 266.115 140.24 269.532 141.539C275.85 143.939 279.314 148.704 280.681 155.168C281.166 157.462 281.367 159.791 281.367 162.132C281.373 182.871 281.367 203.613 281.395 224.352C281.395 225.141 281.132 225.243 280.443 225.24C271.508 225.218 262.574 225.215 253.636 225.243C252.881 225.246 252.653 225.104 252.653 224.29C252.68 205.088 252.668 185.886 252.696 166.688C252.696 165.819 252.526 165.568 251.61 165.577C246.464 165.63 241.315 165.618 236.166 165.584C235.421 165.577 235.257 165.788 235.257 166.514C235.278 185.744 235.269 204.977 235.288 224.207C235.288 224.958 235.176 225.249 234.31 225.246C225.376 225.209 216.441 225.212 207.504 225.243C206.737 225.246 206.61 225.014 206.61 224.306C206.638 195.811 206.635 167.319 206.635 138.826Z" fill="#F7F7F7"/>
<path d="M127.592 138.543C127.592 167.09 127.589 195.641 127.613 224.189C127.613 225.061 127.385 225.243 126.543 225.24C117.64 225.206 108.733 225.206 99.8295 225.243C98.9976 225.247 98.8925 224.987 98.8925 224.254C98.9141 211.917 98.8986 199.581 98.9327 187.245C98.9357 186.357 98.6883 186.206 97.8595 186.209C90.4033 186.243 82.9501 186.221 75.4939 186.227C72.5559 186.23 69.6489 185.983 66.7975 185.216C59.6258 183.289 55.3209 178.626 53.6385 171.448C53.02 168.81 52.8283 166.135 52.8283 163.435C52.8283 127.49 52.8252 91.5445 52.8314 55.5993C52.8314 51.0191 53.5148 46.5689 55.6951 42.4743C58.9083 36.4345 64.0482 32.9831 70.6602 31.5915C72.927 31.1152 75.2248 30.9266 77.535 30.9266C86.086 30.9204 94.634 30.9049 103.185 30.9328C107.394 30.9451 111.504 31.576 115.33 33.4439C121.836 36.62 125.523 41.9455 126.961 48.9409C127.465 51.3872 127.589 53.8643 127.589 56.3539C127.592 83.7511 127.592 111.145 127.592 138.543ZM81.5059 108.631C81.5059 125.612 81.5121 142.594 81.4904 159.575C81.4904 160.299 81.6482 160.506 82.3966 160.5C87.6045 160.466 92.8093 160.466 98.0173 160.5C98.7595 160.506 98.9296 160.321 98.9296 159.585C98.911 125.591 98.911 91.5971 98.9265 57.6064C98.9265 56.9415 98.7935 56.7188 98.0667 56.7219C92.8588 56.7559 87.654 56.7559 82.446 56.7188C81.6667 56.7126 81.4873 56.9105 81.4873 57.6868C81.5121 74.6682 81.5059 91.6496 81.5059 108.631Z" fill="#F7F7F7"/>
<path d="M184.851 128.166C184.851 160.202 184.847 192.239 184.872 224.275C184.872 225.07 184.674 225.24 183.904 225.237C174.97 225.209 166.038 225.209 157.104 225.237C156.368 225.24 156.176 225.054 156.179 224.321C156.198 169.035 156.198 113.746 156.201 58.4592C156.201 56.7119 156.201 56.7119 154.432 56.7119C150.854 56.7119 147.272 56.6934 143.694 56.7274C142.989 56.7336 142.745 56.6068 142.748 55.8305C142.779 47.8145 142.779 39.7985 142.754 31.7825C142.751 31.0867 142.921 30.9073 143.629 30.9073C157.06 30.9321 170.489 30.9321 183.92 30.9012C184.724 30.8981 184.878 31.1084 184.878 31.8753C184.851 63.9764 184.854 96.0714 184.851 128.166Z" fill="#F7F7F7"/>
<path d="M244.018 302.858C239.314 302.858 234.61 302.938 229.91 302.836C224.315 302.712 219.089 301.339 214.657 297.711C210.197 294.062 207.906 289.229 207.015 283.631C206.656 281.37 206.622 279.1 206.628 276.821C206.638 272.946 206.644 269.071 206.619 265.199C206.616 264.633 206.749 264.46 207.34 264.46C216.42 264.478 225.499 264.482 234.579 264.46C235.192 264.46 235.294 264.667 235.288 265.211C235.266 268.879 235.291 272.547 235.263 276.215C235.257 276.877 235.374 277.124 236.116 277.118C241.352 277.081 246.585 277.084 251.821 277.115C252.516 277.118 252.702 276.942 252.693 276.243C252.656 272.575 252.69 268.907 252.662 265.242C252.656 264.618 252.829 264.463 253.447 264.463C262.496 264.482 271.548 264.475 280.597 264.475C281.008 264.475 281.398 264.38 281.386 265.063C281.287 270.62 281.636 276.19 281.182 281.735C280.687 287.775 278.547 293.11 273.905 297.226C270.525 300.223 266.504 301.794 262.091 302.499C259.271 302.95 256.432 302.867 253.596 302.873C250.401 302.879 247.206 302.876 244.012 302.876C244.018 302.867 244.018 302.864 244.018 302.858Z" fill="#F7F7F7"/>
<path d="M90.2357 302.867C85.6803 302.867 81.125 302.907 76.5727 302.854C72.0698 302.802 67.7433 301.921 63.8497 299.555C57.8717 295.918 54.5503 290.472 53.2916 283.677C52.9452 281.809 52.8339 279.923 52.8308 278.027C52.8277 273.769 52.8432 269.51 52.8154 265.252C52.8123 264.645 52.9545 264.457 53.5854 264.46C62.6343 264.482 71.6864 264.482 80.7353 264.463C81.3507 264.463 81.5239 264.608 81.5208 265.239C81.4899 268.907 81.527 272.575 81.4868 276.243C81.4775 276.976 81.7125 277.102 82.3774 277.099C87.5823 277.075 92.7871 277.072 97.995 277.106C98.7063 277.109 98.9414 276.969 98.9321 276.206C98.8857 272.569 98.929 268.929 98.895 265.292C98.8888 264.642 99.0342 264.463 99.7083 264.463C108.729 264.488 117.751 264.482 126.772 264.478C127.214 264.478 127.619 264.376 127.61 265.116C127.535 270.262 127.798 275.414 127.48 280.551C127.013 288.121 123.994 294.427 117.661 298.865C113.684 301.651 109.131 302.746 104.344 302.839C99.6434 302.929 94.9396 302.858 90.2357 302.858C90.2357 302.858 90.2357 302.864 90.2357 302.867Z" fill="#F7F7F7"/>
<path d="M156.195 283.569C156.195 277.508 156.207 271.443 156.176 265.382C156.173 264.661 156.315 264.454 157.073 264.457C166.063 264.488 175.053 264.482 184.046 264.46C184.705 264.457 184.872 264.611 184.869 265.283C184.847 277.557 184.847 289.832 184.866 302.103C184.866 302.706 184.742 302.892 184.102 302.892C175.053 302.867 166.001 302.87 156.952 302.888C156.337 302.888 156.173 302.743 156.176 302.115C156.204 295.933 156.191 289.751 156.195 283.569Z" fill="#F7F7F7"/>
<path d="M272.566 244.915C272.473 250.652 270.419 255.34 265.276 258.321C258.399 262.307 249.084 260.322 244.739 254.026C241.04 248.669 240.848 238.371 247.29 233.052C254.882 226.78 268.075 228.988 271.629 239.153C272.278 241.015 272.578 242.939 272.566 244.915ZM264.825 244.831C264.803 244.547 264.775 244.046 264.723 243.548C264.101 237.956 257.922 235.022 253.262 238.176C250.188 240.257 249.572 243.381 250.151 246.811C250.908 251.313 255.059 253.92 259.45 252.739C262.703 251.864 264.748 248.935 264.825 244.831Z" fill="#F7F7F7"/>
<path d="M174.664 244.831C174.664 240.189 174.682 235.544 174.648 230.902C174.642 230.2 174.827 230.021 175.52 230.03C178.922 230.067 182.321 230.03 185.723 230.052C190.303 230.083 194.24 231.567 197.168 235.244C202.373 241.779 201.074 252.328 194.465 257.134C192.304 258.705 189.845 259.574 187.198 259.651C183.208 259.769 179.216 259.697 175.223 259.744C174.518 259.753 174.667 259.323 174.667 258.94C174.66 254.236 174.66 249.535 174.664 244.831ZM182.237 244.85C182.24 244.85 182.24 244.85 182.244 244.85C182.244 247.271 182.256 249.693 182.234 252.117C182.228 252.646 182.361 252.847 182.924 252.826C184.074 252.782 185.228 252.832 186.378 252.801C187.912 252.761 189.254 252.198 190.399 251.18C192.808 249.04 193.643 244.98 192.378 241.596C191.258 238.6 188.939 236.985 185.738 236.973C184.823 236.97 183.904 237.016 182.992 236.958C182.336 236.917 182.219 237.171 182.225 237.765C182.256 240.121 182.237 242.487 182.237 244.85Z" fill="#F7F7F7"/>
<path d="M63.7383 250.645C64.7434 250.645 65.7485 250.651 66.7567 250.642C67.0722 250.639 67.301 250.639 67.3814 251.057C67.5855 252.093 68.3587 252.659 69.2679 253.008C71.1018 253.71 72.9697 253.741 74.8222 253.085C76.0067 252.665 76.6066 251.889 76.5973 250.908C76.5881 249.919 75.9912 249.263 74.7263 248.83C73.8233 248.521 72.8831 248.412 71.9399 248.347C70.2266 248.227 68.5257 248.048 66.8619 247.587C61.991 246.235 60.0891 242.874 60.5035 237.932C60.7416 235.12 62.2075 233.008 64.5641 231.502C69.0638 228.623 75.9788 228.982 79.9899 232.319C81.9135 233.921 82.8784 236.011 83.0609 238.488C83.0949 238.965 82.9897 239.178 82.4454 239.169C80.4353 239.138 78.422 239.159 76.4118 239.153C76.1984 239.153 75.9077 239.252 75.8428 238.903C75.4747 236.914 73.9532 236.484 72.2894 236.348C71.0307 236.246 69.8122 236.494 68.7483 237.242C67.8948 237.842 67.5237 238.662 67.6659 239.698C67.7927 240.628 68.4205 241.129 69.237 241.451C70.7462 242.048 72.3605 242.063 73.9377 242.283C75.4624 242.493 76.9839 242.713 78.4498 243.192C84.1835 245.072 85.9865 252.275 81.8207 256.694C79.6374 259.014 76.8262 260.01 73.7491 260.31C69.8864 260.684 66.2495 260.031 63.1415 257.523C61.1715 255.934 60.1726 253.821 60.0211 251.292C59.9901 250.794 60.1076 250.614 60.6334 250.633C61.6663 250.67 62.7023 250.645 63.7383 250.645Z" fill="#F7F7F7"/>
<path d="M157.101 240.489C157.101 243.477 157.095 246.464 157.104 249.455C157.119 254.208 154.617 257.814 150.118 259.379C146.073 260.786 142.123 260.526 138.409 258.346C135.224 256.475 133.591 253.605 133.566 249.912C133.526 243.523 133.563 237.131 133.538 230.741C133.535 230.111 133.773 230.027 134.311 230.036C136.204 230.064 138.1 230.08 139.992 230.03C140.664 230.015 140.821 230.203 140.818 230.865C140.79 236.93 140.8 242.994 140.803 249.059C140.803 251.301 141.551 252.454 143.407 253.088C145.55 253.821 148.052 253.249 149.19 251.771C149.743 251.05 149.858 250.219 149.855 249.343C149.849 243.22 149.864 237.097 149.836 230.97C149.833 230.259 149.957 230.002 150.733 230.027C152.595 230.089 154.46 230.07 156.324 230.033C156.937 230.021 157.122 230.188 157.116 230.816C157.082 234.041 157.101 237.267 157.101 240.489Z" fill="#F7F7F7"/>
<path d="M67.2082 209.452C71.7018 209.452 76.1953 209.467 80.6889 209.437C81.3476 209.433 81.5269 209.591 81.5238 210.262C81.4929 214.991 81.496 219.722 81.5208 224.451C81.5239 225.076 81.3538 225.233 80.7352 225.233C71.6894 225.215 62.6436 225.212 53.6008 225.233C52.973 225.233 52.8153 225.06 52.8184 224.451C52.8431 219.692 52.8401 214.932 52.8184 210.173C52.8153 209.594 52.9638 209.433 53.5544 209.437C58.1036 209.464 62.6559 209.452 67.2082 209.452Z" fill="#F7F7F7"/>
<path d="M104.1 248.298C104.1 244.748 104.084 241.201 104.115 237.65C104.121 236.998 103.976 236.787 103.293 236.809C101.431 236.862 99.5661 236.784 97.7043 236.846C96.9405 236.871 96.7735 236.624 96.7951 235.906C96.8477 234.221 96.8508 232.532 96.7889 230.85C96.7642 230.175 96.9312 230.03 97.593 230.03C104.1 230.058 110.607 230.046 117.113 230.049C118.886 230.049 118.886 230.049 118.886 231.852C118.886 233.302 118.864 234.749 118.895 236.2C118.907 236.716 118.734 236.843 118.242 236.837C116.319 236.812 114.395 236.859 112.475 236.812C111.81 236.797 111.636 236.976 111.64 237.644C111.664 244.683 111.643 251.725 111.67 258.763C111.674 259.521 111.534 259.778 110.718 259.75C108.739 259.682 106.756 259.71 104.774 259.741C104.22 259.75 104.087 259.574 104.091 259.036C104.115 255.457 104.103 251.879 104.1 248.298Z" fill="#F7F7F7"/>
<path d="M225.172 244.875C225.172 247.299 225.212 249.727 225.15 252.151C225.128 252.977 225.398 253.166 226.149 253.101C226.913 253.036 227.686 253.107 228.456 253.082C228.843 253.07 228.973 253.203 228.969 253.586C228.954 255.451 228.951 257.313 228.966 259.178C228.969 259.598 228.843 259.738 228.413 259.734C223.768 259.722 219.123 259.719 214.478 259.738C213.986 259.741 213.899 259.558 213.905 259.119C213.927 257.316 213.933 255.51 213.902 253.704C213.893 253.184 214.066 253.054 214.555 253.073C215.412 253.107 216.271 253.064 217.128 253.092C217.558 253.104 217.681 252.952 217.681 252.532C217.669 247.414 217.669 242.295 217.681 237.177C217.681 236.744 217.533 236.617 217.119 236.633C216.352 236.661 215.579 236.62 214.812 236.648C214.357 236.667 214.19 236.528 214.196 236.051C214.221 234.248 214.221 232.442 214.199 230.636C214.193 230.169 214.345 230.036 214.805 230.039C219.212 230.055 223.622 230.058 228.029 230.039C228.552 230.036 228.676 230.213 228.666 230.701C228.642 232.445 228.629 234.193 228.673 235.937C228.688 236.562 228.447 236.682 227.899 236.651C227.222 236.611 226.536 236.679 225.858 236.633C225.305 236.596 225.153 236.784 225.159 237.329C225.187 239.846 225.172 242.36 225.172 244.875Z" fill="#F7F7F7"/>
</svg>
